<svg width="84" height="84" viewBox="0 0 84 84" fill="none" xmlns="http://www.w3.org/2000/svg">
<path d="M38.0861 1.19551C40.5172 -0.168212 43.4828 -0.168211 45.9139 1.19551L50.2391 3.62173C51.4053 4.27592 52.7168 4.62735 54.0539 4.64391L59.0127 4.70533C61.8 4.73985 64.3683 6.22266 65.7918 8.61921L68.3244 12.883C69.0073 14.0326 69.9674 14.9928 71.117 15.6756L75.3808 18.2082C77.7773 19.6317 79.2601 22.2 79.2947 24.9873L79.3561 29.9461C79.3727 31.2832 79.7241 32.5947 80.3783 33.7609L82.8045 38.0861C84.1682 40.5172 84.1682 43.4828 82.8045 45.9139L80.3783 50.2391C79.7241 51.4053 79.3727 52.7168 79.3561 54.0539L79.2947 59.0127C79.2601 61.8 77.7773 64.3683 75.3808 65.7918L71.117 68.3244C69.9674 69.0073 69.0073 69.9674 68.3244 71.117L65.7918 75.3808C64.3683 77.7773 61.8 79.2601 59.0127 79.2947L54.0539 79.3561C52.7168 79.3727 51.4053 79.7241 50.2391 80.3783L45.9139 82.8045C43.4828 84.1682 40.5172 84.1682 38.0861 82.8045L33.7609 80.3783C32.5947 79.7241 31.2832 79.3727 29.9461 79.3561L24.9873 79.2947C22.2 79.2601 19.6317 77.7773 18.2082 75.3808L15.6756 71.117C14.9928 69.9674 14.0326 69.0073 12.883 68.3244L8.61921 65.7918C6.22266 64.3683 4.73985 61.8 4.70533 59.0127L4.64391 54.0539C4.62735 52.7168 4.27591 51.4053 3.62173 50.2391L1.19551 45.9139C-0.168212 43.4828 -0.168211 40.5172 1.19551 38.0861L3.62173 33.7609C4.27592 32.5947 4.62735 31.2832 4.64391 29.9461L4.70533 24.9873C4.73985 22.2 6.22266 19.6317 8.61922 18.2082L12.883 15.6756C14.0326 14.9928 14.9928 14.0326 15.6756 12.883L18.2082 8.61921C19.6317 6.22266 22.2001 4.73985 24.9873 4.70533L29.9461 4.64391C31.2832 4.62735 32.5947 4.27591 33.7609 3.62173L38.0861 1.19551Z" fill="#F5CB98"/>
<circle cx="42" cy="42" r="35" fill="#F5CB98"/>
<circle cx="42" cy="42" r="34" stroke="white" stroke-opacity="0.6" stroke-width="2"/>
<path d="M48.7407 35.299C49.1169 35.1706 49.3178 34.7615 49.1894 34.3853C49.061 34.0091 48.6519 33.8082 48.2757 33.9366C47.8995 34.065 47.6986 34.4741 47.827 34.8503C47.9554 35.2265 48.3645 35.4274 48.7407 35.299Z" fill="white"/>
<path d="M35.4832 30.413C35.8595 30.2846 36.0604 29.8755 35.932 29.4993C35.8035 29.1231 35.3945 28.9222 35.0182 29.0506C34.642 29.179 34.4411 29.5881 34.5695 29.9643C34.6979 30.3405 35.107 30.5414 35.4832 30.413Z" fill="white"/>
<path d="M53.6583 37.1378C54.0345 37.0094 54.2354 36.6004 54.107 36.2241C53.9786 35.8479 53.5695 35.647 53.1933 35.7754C52.8171 35.9038 52.6162 36.3129 52.7446 36.6891C52.873 37.0654 53.2821 37.2663 53.6583 37.1378Z" fill="white"/>
<path d="M44.708 59.881H41.0333C30.9471 59.881 22.7413 51.6753 22.7413 41.589V39.0492C22.7413 38.8557 22.8182 38.6702 22.955 38.5334C23.0918 38.3966 23.2774 38.3197 23.4709 38.3197H62.2704C62.4639 38.3197 62.6495 38.3966 62.7863 38.5334C62.9231 38.6702 63 38.8557 63 39.0492V41.589C63 51.6754 54.7942 59.881 44.708 59.881ZM24.2004 39.7787V41.589C24.2004 50.8708 31.7516 58.422 41.0333 58.422H44.708C53.9897 58.422 61.5409 50.8708 61.5409 41.589V39.7787H24.2004Z" fill="white"/>
<path d="M62.1828 44.08H23.5583C23.3648 44.08 23.1792 44.0032 23.0424 43.8663C22.9056 43.7295 22.8287 43.544 22.8287 43.3505C22.8287 43.157 22.9056 42.9715 23.0424 42.8346C23.1792 42.6978 23.3648 42.621 23.5583 42.621H62.1828C62.3763 42.621 62.5619 42.6978 62.6987 42.8346C62.8355 42.9715 62.9124 43.157 62.9124 43.3505C62.9124 43.544 62.8355 43.7295 62.6987 43.8663C62.5619 44.0032 62.3763 44.08 62.1828 44.08Z" fill="white"/>
<path d="M61.4059 47.05H24.1165C23.923 47.05 23.7374 46.9731 23.6006 46.8363C23.4638 46.6995 23.387 46.5139 23.387 46.3205C23.387 46.127 23.4638 45.9414 23.6006 45.8046C23.7374 45.6678 23.923 45.5909 24.1165 45.5909H61.4059C61.5994 45.5909 61.7849 45.6678 61.9217 45.8046C62.0585 45.9414 62.1354 46.127 62.1354 46.3205C62.1354 46.5139 62.0585 46.6995 61.9217 46.8363C61.7849 46.9731 61.5994 47.05 61.4059 47.05Z" fill="white"/>
<path d="M47.7873 39.7789C47.6159 39.7786 47.4501 39.7181 47.3189 39.6079C47.1877 39.4976 47.0994 39.3448 47.0697 39.176C46.964 38.5907 46.4369 36.8733 45.4377 36.6861C44.8826 36.5818 44.3317 36.7122 43.7989 36.8382C42.9674 37.0348 41.7108 37.3319 41.1626 35.9067C40.8492 35.0911 41.0187 34.3895 41.1549 33.8257C41.3111 33.1798 41.4055 32.79 40.9456 32.2045C40.439 31.5599 39.6942 31.1897 39.0471 31.2628C38.5201 31.322 38.0893 31.6745 37.8014 32.2823C37.0712 33.824 35.2685 34.8598 33.8652 34.5446C32.9225 34.3326 32.3598 33.5654 32.3598 32.4924C32.3598 31.3532 31.7127 30.158 30.9173 29.8288C30.3909 29.6109 29.8165 29.8078 29.2097 30.4144C28.2922 31.3318 28.3627 32.2391 28.4307 33.1164C28.4979 33.9799 28.6101 35.4253 26.6683 35.5966C25.285 35.72 24.2868 34.997 23.5579 34.4701C23.3335 34.308 23.0029 34.0687 22.8528 34.0252C22.7658 34.1183 22.6943 34.2248 22.641 34.3405C21.9441 35.6877 23.4017 37.8518 24.0221 38.5721C24.1465 38.7187 24.2079 38.9085 24.1931 39.1002C24.1783 39.2919 24.0884 39.47 23.9429 39.5958C23.7975 39.7215 23.6083 39.7848 23.4164 39.7718C23.2246 39.7588 23.0457 39.6706 22.9185 39.5264C22.8009 39.3905 20.0521 36.1698 21.345 33.67C21.6609 33.0593 22.043 32.7081 22.5128 32.5961C23.2226 32.427 23.8278 32.8646 24.4129 33.2878C25.045 33.7448 25.6983 34.2159 26.5402 34.1433C26.8874 34.1126 26.9699 34.0373 26.9706 34.0364C27.0316 33.9435 26.9969 33.496 26.9761 33.2294C26.9005 32.252 26.7855 30.775 28.1779 29.3825C29.5732 27.9874 30.8427 28.2185 31.4753 28.4807C32.8111 29.034 33.8185 30.7585 33.8185 32.4922C33.8185 33.0385 34.066 33.0941 34.185 33.1209C34.7759 33.2544 35.9652 32.7498 36.4826 31.6575C36.9905 30.5847 37.8436 29.9296 38.8841 29.8128C40.0394 29.6831 41.2685 30.2543 42.0926 31.303C42.9896 32.4447 42.7487 33.4409 42.5728 34.1684C42.4494 34.6788 42.381 35.0105 42.5241 35.3826C42.5408 35.4415 42.5709 35.4957 42.6121 35.5411C42.7185 35.5938 43.1844 35.4838 43.4628 35.418C44.0796 35.2722 44.8473 35.0908 45.7063 35.2516C47.9064 35.6642 48.4824 38.7892 48.5055 38.9221C48.5239 39.0271 48.5191 39.1349 48.4915 39.2378C48.4639 39.3407 48.414 39.4364 48.3455 39.518C48.2769 39.5996 48.1913 39.6652 48.0947 39.7102C47.9981 39.7553 47.8928 39.7786 47.7862 39.7785L47.7873 39.7789Z" fill="white"/>
<path d="M55.609 39.779C55.4775 39.7788 55.3484 39.7431 55.2355 39.6757C55.1226 39.6083 55.0301 39.5116 54.9676 39.3958C54.9052 39.2801 54.8751 39.1496 54.8807 39.0183C54.8863 38.8869 54.9273 38.7594 54.9994 38.6494C55.4251 37.9978 55.6928 37.2557 55.7811 36.4824C55.8694 35.709 55.7758 34.9257 55.5079 34.1949C55.24 33.4641 54.8052 32.8059 54.238 32.2728C53.6708 31.7397 52.9869 31.3465 52.2409 31.1244C51.4949 30.9022 50.7073 30.8574 49.9409 30.9934C49.1745 31.1295 48.4505 31.4426 47.8265 31.9078C47.2024 32.3731 46.6957 32.9777 46.3466 33.6734C45.9975 34.3691 45.8157 35.1367 45.8156 35.9151C45.816 36.0109 45.7974 36.1058 45.7611 36.1945C45.7248 36.2831 45.6713 36.3637 45.6038 36.4317C45.4675 36.569 45.2823 36.6466 45.0888 36.6473C44.8953 36.648 44.7095 36.5719 44.5722 36.4356C44.4348 36.2992 44.3573 36.114 44.3566 35.9205V35.9151C44.3568 34.9096 44.5918 33.918 45.0429 33.0193C45.494 32.1207 46.1488 31.3398 46.955 30.7389C47.7612 30.138 48.6966 29.7336 49.6867 29.558C50.6768 29.3825 51.6942 29.4406 52.6578 29.7276C53.6215 30.0147 54.5048 30.5229 55.2374 31.2117C55.97 31.9004 56.5316 32.7507 56.8776 33.6949C57.2235 34.639 57.3442 35.6509 57.2299 36.6499C57.1157 37.6489 56.7698 38.6075 56.2197 39.4492C56.1533 39.5506 56.0627 39.6339 55.9561 39.6914C55.8495 39.749 55.7302 39.7791 55.609 39.779Z" fill="white"/>
<path d="M40.7632 31.7681C40.7518 31.7681 40.7403 31.7681 40.7288 31.7673C40.5355 31.7583 40.3537 31.6729 40.2234 31.5299C40.0931 31.3868 40.025 31.1979 40.0339 31.0046C40.0339 30.9933 40.0339 30.9818 40.0339 30.9705C40.0339 29.901 39.6609 28.8651 38.9791 28.0412C38.2973 27.2173 37.3495 26.657 36.2989 26.4569C35.2484 26.2567 34.1609 26.4293 33.224 26.9448C32.287 27.4604 31.5592 28.2866 31.166 29.2811C31.0942 29.4603 30.9544 29.6038 30.777 29.6801C30.5997 29.7563 30.3993 29.7592 30.2198 29.688C30.0404 29.6169 29.8965 29.4775 29.8196 29.3004C29.7427 29.1233 29.7392 28.9229 29.8098 28.7432C30.3281 27.4332 31.2871 26.345 32.5216 25.6661C33.7561 24.9871 35.1887 24.76 36.5726 25.0239C37.9566 25.2877 39.2051 26.0259 40.1032 27.1114C41.0013 28.1969 41.4927 29.5616 41.4928 30.9705C41.4928 31.0044 41.4928 31.0385 41.4909 31.0724C41.4822 31.2596 41.4018 31.4363 41.2663 31.5659C41.1308 31.6954 40.9507 31.7678 40.7632 31.7681Z" fill="white"/>
<path d="M60.8654 39.779C60.7486 39.7789 60.6336 39.7507 60.53 39.697C60.4263 39.6432 60.3371 39.5654 60.2697 39.47C60.2024 39.3746 60.1589 39.2645 60.1429 39.1488C60.1269 39.0332 60.1389 38.9154 60.1779 38.8053C60.1808 38.7964 60.6017 37.5308 59.8509 36.7423C59.2498 36.1113 58.9959 35.5111 59.0741 34.9076C59.1889 34.024 59.9749 33.4283 60.8072 32.9159C61.2293 32.6565 61.5245 31.602 61.2726 30.632C61.1321 30.0909 60.7919 29.4383 59.9691 29.4025C59.1834 29.3701 58.8191 29.7533 58.3138 30.3912C57.9723 30.8224 57.5853 31.3112 56.9436 31.3482C56.4946 31.3721 56.0544 31.1628 55.5941 30.7026C54.5965 29.7048 54.8104 28.626 54.9666 27.8385C55.13 27.0145 55.1911 26.706 54.4154 26.291C53.2196 25.6512 52.873 26.0479 52.0467 27.289C51.8397 27.6118 51.6155 27.9234 51.375 28.2222C50.5697 29.1886 49.7107 29.4227 49.132 29.4491C48.3452 29.4855 47.5695 29.1624 46.9483 28.5413C46.4486 28.0414 46.3627 27.4408 46.2936 26.9584C46.1926 26.2528 46.137 25.8642 44.9125 25.5634C44.0843 25.3602 43.4112 25.4546 42.8548 25.8525C41.6984 26.6797 41.2841 28.6704 41.2223 29.3676C41.2043 29.5596 41.111 29.7366 40.9628 29.86C40.8146 29.9834 40.6236 30.0431 40.4315 30.026C40.2395 30.009 40.062 29.9166 39.9378 29.7691C39.8137 29.6215 39.753 29.4308 39.769 29.2387C39.7805 29.109 40.0728 26.0481 42.0062 24.6657C42.9169 24.0146 44.0115 23.8399 45.2606 24.147C47.4419 24.6828 47.62 25.9281 47.7379 26.7516C47.793 27.136 47.8313 27.3607 47.9801 27.5094C48.3077 27.8372 48.6923 28.0093 49.066 27.9915C49.4753 27.9729 49.8862 27.7297 50.2542 27.2881C50.4609 27.0291 50.6539 26.7594 50.8324 26.4801C51.5673 25.3759 52.6788 23.7077 55.1036 25.0043C56.8328 25.9295 56.5714 27.2491 56.3982 28.1223C56.2507 28.8667 56.1986 29.2433 56.6264 29.671C56.6944 29.7419 56.7693 29.8058 56.85 29.862C56.9638 29.7426 57.0708 29.6169 57.1705 29.4855C57.6472 28.8836 58.4439 27.8743 60.0329 27.9451C61.331 28.0014 62.3226 28.8689 62.6852 30.2654C63.0384 31.6252 62.7187 33.4537 61.572 34.1587C60.6931 34.699 60.5363 34.9777 60.5209 35.0955C60.5146 35.144 60.5239 35.3332 60.9072 35.7361C62.2814 37.1791 61.5832 39.2076 61.5529 39.2932C61.5025 39.4352 61.4093 39.5582 61.2862 39.6452C61.1631 39.7322 61.0161 39.7789 60.8654 39.779Z" fill="white"/>
<path d="M41.0874 39.779C40.9335 39.779 40.7836 39.7302 40.6591 39.6398C40.5345 39.5494 40.4418 39.4219 40.394 39.2756C40.1389 38.4996 39.1295 36.2418 37.8844 36.0605C37.0965 35.9463 36.7471 36.2089 36.1685 36.6442C35.6378 37.044 34.9772 37.5412 33.8902 37.7158C32.5554 37.9307 31.8544 37.3376 31.3424 36.9053C30.9146 36.5438 30.7544 36.4081 30.2541 36.572C29.0555 36.9634 29.1692 38.98 29.1706 39.0003C29.1837 39.1934 29.1196 39.3837 28.9924 39.5295C28.8652 39.6753 28.6852 39.7646 28.4922 39.7777C28.2992 39.7908 28.1088 39.7267 27.9631 39.5995C27.8173 39.4723 27.728 39.2924 27.7149 39.0993C27.7059 38.9703 27.5215 35.9294 29.8008 35.185C31.0743 34.7689 31.7732 35.3596 32.2835 35.7902C32.706 36.1469 32.9851 36.3828 33.6582 36.2746C34.3882 36.1573 34.8265 35.8272 35.2902 35.4778C35.9527 34.979 36.7035 34.4136 38.0936 34.6157C40.455 34.9592 41.6516 38.4276 41.7803 38.822C41.8161 38.9316 41.8255 39.048 41.8076 39.1619C41.7898 39.2757 41.7453 39.3837 41.6777 39.4771C41.6101 39.5704 41.5214 39.6464 41.4188 39.6989C41.3162 39.7514 41.2027 39.7789 41.0874 39.779Z" fill="white"/>
<path d="M49.1204 39.7789C48.995 39.7787 48.8718 39.7463 48.7626 39.6846C48.6534 39.623 48.5619 39.5342 48.497 39.4269C48.4321 39.3197 48.3959 39.1975 48.392 39.0721C48.388 38.9468 48.4164 38.8226 48.4745 38.7114L51.3925 33.1274C51.4824 32.9564 51.6365 32.8281 51.8208 32.7706C52.0052 32.713 52.2049 32.7309 52.3761 32.8204C52.5472 32.9098 52.676 33.0635 52.734 33.2477C52.792 33.4319 52.7747 33.6317 52.6857 33.8031L49.7676 39.3871C49.7059 39.5053 49.6129 39.6044 49.4988 39.6734C49.3847 39.7425 49.2538 39.779 49.1204 39.7789Z" fill="white"/>
</svg>
