<svg width="84" height="84" viewBox="0 0 84 84" fill="none" xmlns="http://www.w3.org/2000/svg">
<g clip-path="url(#clip0)">
<path d="M38.0861 1.19551C40.5172 -0.168212 43.4828 -0.168211 45.9139 1.19551L50.2391 3.62173C51.4053 4.27592 52.7168 4.62735 54.0539 4.64391L59.0127 4.70533C61.8 4.73985 64.3683 6.22266 65.7918 8.61921L68.3244 12.883C69.0073 14.0326 69.9674 14.9928 71.117 15.6756L75.3808 18.2082C77.7773 19.6317 79.2601 22.2 79.2947 24.9873L79.3561 29.9461C79.3727 31.2832 79.7241 32.5947 80.3783 33.7609L82.8045 38.0861C84.1682 40.5172 84.1682 43.4828 82.8045 45.9139L80.3783 50.2391C79.7241 51.4053 79.3727 52.7168 79.3561 54.0539L79.2947 59.0127C79.2601 61.8 77.7773 64.3683 75.3808 65.7918L71.117 68.3244C69.9674 69.0073 69.0073 69.9674 68.3244 71.117L65.7918 75.3808C64.3683 77.7773 61.8 79.2601 59.0127 79.2947L54.0539 79.3561C52.7168 79.3727 51.4053 79.7241 50.2391 80.3783L45.9139 82.8045C43.4828 84.1682 40.5172 84.1682 38.0861 82.8045L33.7609 80.3783C32.5947 79.7241 31.2832 79.3727 29.9461 79.3561L24.9873 79.2947C22.2 79.2601 19.6317 77.7773 18.2082 75.3808L15.6756 71.117C14.9928 69.9674 14.0326 69.0073 12.883 68.3244L8.61921 65.7918C6.22266 64.3683 4.73985 61.8 4.70533 59.0127L4.64391 54.0539C4.62735 52.7168 4.27591 51.4053 3.62173 50.2391L1.19551 45.9139C-0.168212 43.4828 -0.168211 40.5172 1.19551 38.0861L3.62173 33.7609C4.27592 32.5947 4.62735 31.2832 4.64391 29.9461L4.70533 24.9873C4.73985 22.2 6.22266 19.6317 8.61922 18.2082L12.883 15.6756C14.0326 14.9928 14.9928 14.0326 15.6756 12.883L18.2082 8.61921C19.6317 6.22266 22.2001 4.73985 24.9873 4.70533L29.9461 4.64391C31.2832 4.62735 32.5947 4.27591 33.7609 3.62173L38.0861 1.19551Z" fill="#D7E181"/>
<circle cx="42" cy="42" r="35" fill="#D7E181"/>
<circle cx="42" cy="42" r="34" stroke="white" stroke-opacity="0.6" stroke-width="2"/>
<path d="M38.906 58.0481C38.7457 58.048 38.5901 57.9943 38.4638 57.8957C38.3375 57.7971 38.2477 57.6591 38.2086 57.5037C37.8608 55.9174 37.7407 54.2896 37.8519 52.6694C38.0898 49.0832 39.4742 46.1513 41.8551 44.1911C41.9533 44.1103 42.0711 44.057 42.1966 44.0365C42.3221 44.016 42.4508 44.0291 42.5696 44.0744C44.0679 44.5898 45.6339 44.8823 47.2172 44.9425C50.5499 45.0554 53.1234 44.0049 54.8677 41.8223C58.5422 37.2252 57.4929 29.9796 57.0926 27.8992C55.1587 28.0347 48.9115 28.7717 45.4817 32.7005C43.7333 34.7031 42.9531 37.278 43.1568 40.3641C44.8232 39.7651 48.5468 38.2052 50.1333 35.7581C50.1847 35.6787 50.2512 35.6103 50.3291 35.5567C50.407 35.5031 50.4946 35.4654 50.5871 35.4456C50.6795 35.4259 50.775 35.4246 50.8679 35.4417C50.9609 35.4589 51.0496 35.4942 51.1289 35.5456C51.2082 35.597 51.2766 35.6636 51.3302 35.7415C51.3839 35.8193 51.4216 35.907 51.4413 35.9994C51.461 36.0919 51.4624 36.1873 51.4452 36.2803C51.4281 36.3733 51.3928 36.4619 51.3413 36.5413C48.9829 40.1791 42.9803 41.9513 42.7258 42.0249C42.6257 42.0539 42.5204 42.0608 42.4174 42.0452C42.3143 42.0295 42.2158 41.9916 42.1288 41.9342C42.0418 41.8767 41.9684 41.8011 41.9135 41.7124C41.8586 41.6237 41.8237 41.5242 41.811 41.4207C41.334 37.5149 42.2056 34.2608 44.4015 31.748C48.9019 26.5987 57.3047 26.4338 57.6602 26.4293H57.6694C57.8299 26.4293 57.9858 26.483 58.1124 26.5818C58.2389 26.6806 58.3288 26.8189 58.3677 26.9746C58.467 27.372 60.7459 36.7734 55.9921 42.7208C53.9691 45.2518 50.904 46.5163 47.1251 46.3793C45.5435 46.3145 43.9776 46.0393 42.4687 45.5608C37.8289 49.7432 39.5862 57.0786 39.6048 57.1532C39.6312 57.2594 39.633 57.3702 39.6102 57.4772C39.5873 57.5841 39.5405 57.6845 39.4731 57.7707C39.4057 57.8568 39.3196 57.9265 39.2212 57.9745C39.1229 58.0224 39.015 58.0473 38.9056 58.0474L38.906 58.0481Z" fill="white"/>
<path d="M36.6963 48.3454H36.6845C36.3951 48.3408 29.5605 48.1663 26.2652 42.6062C22.9677 37.0428 27.1374 29.1341 27.3165 28.8002C27.3933 28.657 27.5164 28.544 27.6657 28.4796C27.815 28.4152 27.9817 28.4032 28.1386 28.4455C28.3618 28.5059 33.6511 29.9746 37.7276 34.488C39.5134 36.465 40.1629 39.0211 39.6063 41.88C39.3521 43.1804 38.8888 44.431 38.2346 45.5832C38.1815 45.6702 38.1107 45.7449 38.0266 45.8024C37.9426 45.8599 37.8473 45.899 37.7471 45.917C37.6468 45.9349 37.5439 45.9315 37.4451 45.9067C37.3463 45.882 37.2539 45.8366 37.174 45.7735C36.9462 45.5936 31.5801 41.3199 30.2494 37.0323C30.2203 36.9417 30.2094 36.8463 30.2173 36.7514C30.2253 36.6566 30.252 36.5643 30.2959 36.4798C30.3398 36.3954 30.4 36.3204 30.473 36.2594C30.5461 36.1984 30.6305 36.1524 30.7214 36.1242C30.8123 36.096 30.9079 36.0861 31.0026 36.0951C31.0974 36.1041 31.1894 36.1318 31.2734 36.1766C31.3574 36.2213 31.4316 36.2823 31.4919 36.356C31.5521 36.4297 31.5972 36.5146 31.6244 36.6058C32.5621 39.627 35.937 42.8104 37.3916 44.0767C37.7596 43.2737 38.0314 42.4299 38.2013 41.5631C38.6599 39.1498 38.1414 37.0946 36.6593 35.4532C33.6187 32.087 29.7515 30.5118 28.3241 30.016C27.4876 31.8165 25.0714 37.7681 27.5037 41.8725C30.3938 46.7478 36.6448 46.9052 36.7073 46.9062C36.8982 46.9077 37.0807 46.985 37.2146 47.121C37.3486 47.2571 37.423 47.4408 37.4214 47.6317C37.4199 47.8226 37.3426 48.0051 37.2066 48.1391C37.0705 48.273 36.8868 48.3474 36.6959 48.3459L36.6963 48.3454Z" fill="white"/>
<path d="M47.3845 52.0627C45.7641 52.0627 43.6043 51.5828 41.6264 49.5892C41.5481 49.5102 41.4891 49.4142 41.4541 49.3087C41.4192 49.2031 41.4091 49.0909 41.4248 48.9809C41.4404 48.8708 41.4814 48.7658 41.5444 48.6742C41.6074 48.5826 41.6908 48.5068 41.788 48.4529C42.774 47.9529 43.8473 47.6484 44.9489 47.5561C46.6375 47.4115 49.0998 47.7421 51.2441 50.1294C51.3175 50.2111 51.3712 50.3086 51.4011 50.4143C51.4311 50.52 51.4364 50.6312 51.4167 50.7392C51.397 50.8473 51.3529 50.9495 51.2876 51.0379C51.2223 51.1262 51.1377 51.1985 51.0402 51.2491C50.0659 51.7072 49.0137 51.9768 47.9392 52.0439C47.7628 52.0558 47.5774 52.0627 47.3845 52.0627ZM43.4802 49.3034C45.7271 50.9952 48.0954 50.7011 49.389 50.3357C47.1905 48.518 44.7935 48.8817 43.4802 49.3034V49.3034Z" fill="white"/>
<path d="M40.4066 34.765C40.2638 34.765 40.1243 34.7225 40.0057 34.643C39.1112 33.9935 38.3507 33.1771 37.7661 32.2388C36.8685 30.8017 36.0392 28.4597 37.1862 25.4627C37.2254 25.36 37.2877 25.2677 37.3681 25.1929C37.4486 25.118 37.5451 25.0625 37.6503 25.0308C37.7555 24.999 37.8666 24.9917 37.975 25.0095C38.0835 25.0273 38.1864 25.0697 38.2759 25.1335C39.1278 25.7918 39.8476 26.6053 40.3973 27.531C41.2526 28.956 42.0671 31.2816 41.0905 34.2688C41.0433 34.413 40.9518 34.5387 40.8289 34.6278C40.706 34.7169 40.5581 34.7649 40.4063 34.7649L40.4066 34.765ZM38.2169 27.01C38.0374 27.7679 38.0131 28.5543 38.1456 29.3218C38.278 30.0894 38.5644 30.8221 38.9876 31.476C39.2754 31.9343 39.6128 32.3594 39.9937 32.7438C40.4829 29.951 39.1376 27.9875 38.2169 27.01V27.01Z" fill="white"/>
</g>
<defs>
<clipPath id="clip0">
<rect width="84" height="84" fill="white"/>
</clipPath>
</defs>
</svg>
