<svg width="84" height="84" viewBox="0 0 84 84" fill="none" xmlns="http://www.w3.org/2000/svg">
<g clip-path="url(#clip0)">
<path d="M38.0861 1.19551C40.5172 -0.168212 43.4828 -0.168211 45.9139 1.19551L50.2391 3.62173C51.4053 4.27592 52.7168 4.62735 54.0539 4.64391L59.0127 4.70533C61.8 4.73985 64.3683 6.22266 65.7918 8.61921L68.3244 12.883C69.0073 14.0326 69.9674 14.9928 71.117 15.6756L75.3808 18.2082C77.7773 19.6317 79.2601 22.2 79.2947 24.9873L79.3561 29.9461C79.3727 31.2832 79.7241 32.5947 80.3783 33.7609L82.8045 38.0861C84.1682 40.5172 84.1682 43.4828 82.8045 45.9139L80.3783 50.2391C79.7241 51.4053 79.3727 52.7168 79.3561 54.0539L79.2947 59.0127C79.2601 61.8 77.7773 64.3683 75.3808 65.7918L71.117 68.3244C69.9674 69.0073 69.0073 69.9674 68.3244 71.117L65.7918 75.3808C64.3683 77.7773 61.8 79.2601 59.0127 79.2947L54.0539 79.3561C52.7168 79.3727 51.4053 79.7241 50.2391 80.3783L45.9139 82.8045C43.4828 84.1682 40.5172 84.1682 38.0861 82.8045L33.7609 80.3783C32.5947 79.7241 31.2832 79.3727 29.9461 79.3561L24.9873 79.2947C22.2 79.2601 19.6317 77.7773 18.2082 75.3808L15.6756 71.117C14.9928 69.9674 14.0326 69.0073 12.883 68.3244L8.61921 65.7918C6.22266 64.3683 4.73985 61.8 4.70533 59.0127L4.64391 54.0539C4.62735 52.7168 4.27591 51.4053 3.62173 50.2391L1.19551 45.9139C-0.168212 43.4828 -0.168211 40.5172 1.19551 38.0861L3.62173 33.7609C4.27592 32.5947 4.62735 31.2832 4.64391 29.9461L4.70533 24.9873C4.73985 22.2 6.22266 19.6317 8.61922 18.2082L12.883 15.6756C14.0326 14.9928 14.9928 14.0326 15.6756 12.883L18.2082 8.61921C19.6317 6.22266 22.2001 4.73985 24.9873 4.70533L29.9461 4.64391C31.2832 4.62735 32.5947 4.27591 33.7609 3.62173L38.0861 1.19551Z" fill="#FCAFAF"/>
<circle cx="42" cy="42" r="35" fill="#FCAFAF"/>
<circle cx="42" cy="42" r="34" stroke="white" stroke-opacity="0.6" stroke-width="2"/>
<path d="M49.8186 54.59H36.4402C36.2532 54.59 36.0739 54.5157 35.9416 54.3834C35.8094 54.2512 35.7351 54.0719 35.7351 53.8848C35.7351 53.6978 35.8094 53.5185 35.9416 53.3862C36.0739 53.254 36.2532 53.1797 36.4402 53.1797H49.1135V31.4103H23.7672V53.1797H28.3188C28.5058 53.1797 28.6852 53.254 28.8174 53.3862C28.9497 53.5185 29.0239 53.6978 29.0239 53.8848C29.0239 54.0719 28.9497 54.2512 28.8174 54.3834C28.6852 54.5157 28.5058 54.59 28.3188 54.59H23.0624C22.8754 54.59 22.6961 54.5157 22.5638 54.3834C22.4316 54.2512 22.3573 54.0719 22.3573 53.8848V30.7051C22.3573 30.5181 22.4316 30.3388 22.5638 30.2065C22.6961 30.0743 22.8754 30 23.0624 30H49.8191C50.0061 30 50.1854 30.0743 50.3177 30.2065C50.4499 30.3388 50.5242 30.5181 50.5242 30.7051V53.8848C50.5242 53.9775 50.5059 54.0692 50.4705 54.1548C50.435 54.2404 50.383 54.3181 50.3175 54.3836C50.252 54.4491 50.1742 54.501 50.0886 54.5364C50.003 54.5718 49.9113 54.59 49.8186 54.59V54.59Z" fill="white"/>
<path d="M51.9052 54.59H49.8186C49.6316 54.59 49.4522 54.5157 49.32 54.3834C49.1878 54.2512 49.1135 54.0718 49.1135 53.8848C49.1135 53.6978 49.1878 53.5185 49.32 53.3862C49.4522 53.254 49.6316 53.1797 49.8186 53.1797H51.9052C52.0922 53.1797 52.2716 53.254 52.4038 53.3862C52.536 53.5185 52.6103 53.6978 52.6103 53.8848C52.6103 54.0718 52.536 54.2512 52.4038 54.3834C52.2716 54.5157 52.0922 54.59 51.9052 54.59V54.59Z" fill="white"/>
<path d="M63.2949 54.59H60.0266C59.8396 54.59 59.6602 54.5157 59.528 54.3835C59.3958 54.2512 59.3215 54.0719 59.3215 53.8849C59.3215 53.6979 59.3958 53.5185 59.528 53.3863C59.6602 53.254 59.8396 53.1797 60.0266 53.1797H62.5897V44.7635L58.6293 37.8337H49.8186C49.6316 37.8337 49.4522 37.7594 49.32 37.6272C49.1878 37.495 49.1135 37.3156 49.1135 37.1286C49.1135 36.9416 49.1878 36.7622 49.32 36.63C49.4522 36.4978 49.6316 36.4235 49.8186 36.4235H59.0386C59.1629 36.4235 59.2849 36.4563 59.3924 36.5187C59.5 36.5811 59.5891 36.6707 59.6508 36.7786L63.9071 44.2263C63.968 44.3328 64 44.4535 64.0001 44.5762V53.8848C64.0001 53.9774 63.9818 54.0691 63.9464 54.1546C63.911 54.2402 63.859 54.318 63.7936 54.3834C63.7281 54.4489 63.6503 54.5009 63.5648 54.5363C63.4792 54.5718 63.3875 54.59 63.2949 54.59V54.59Z" fill="white"/>
<path d="M63.2949 45.2817H49.8189C49.6319 45.2817 49.4525 45.2074 49.3203 45.0752C49.1881 44.943 49.1138 44.7636 49.1138 44.5766C49.1138 44.3896 49.1881 44.2102 49.3203 44.078C49.4525 43.9458 49.6319 43.8715 49.8189 43.8715H63.2949C63.4819 43.8715 63.6613 43.9458 63.7935 44.078C63.9258 44.2102 64 44.3896 64 44.5766C64 44.7636 63.9258 44.943 63.7935 45.0752C63.6613 45.2074 63.4819 45.2817 63.2949 45.2817V45.2817Z" fill="white"/>
<path d="M32.3794 59.1796C31.4368 59.1796 30.5154 58.9001 29.7316 58.3764C28.9479 57.8528 28.337 57.1084 27.9763 56.2376C27.6156 55.3667 27.5212 54.4085 27.7051 53.484C27.889 52.5595 28.3429 51.7103 29.0094 51.0437C29.6759 50.3772 30.5252 49.9233 31.4496 49.7394C32.3741 49.5555 33.3324 49.6499 34.2033 50.0106C35.0741 50.3713 35.8184 50.9822 36.3421 51.7659C36.8658 52.5497 37.1453 53.4711 37.1453 54.4137C37.1439 55.6773 36.6413 56.8887 35.7479 57.7822C34.8544 58.6757 33.643 59.1782 32.3794 59.1796V59.1796ZM32.3794 51.0582C31.7157 51.0582 31.067 51.255 30.5151 51.6237C29.9633 51.9925 29.5332 52.5166 29.2792 53.1297C29.0252 53.7429 28.9588 54.4176 29.0883 55.0685C29.2178 55.7195 29.5374 56.3174 30.0067 56.7867C30.476 57.256 31.0739 57.5755 31.7248 57.705C32.3758 57.8345 33.0505 57.768 33.6636 57.514C34.2768 57.26 34.8009 56.8299 35.1696 56.2781C35.5383 55.7262 35.7351 55.0774 35.735 54.4137C35.7341 53.5241 35.3802 52.6711 34.7511 52.042C34.122 51.4129 33.2691 51.0591 32.3794 51.0581V51.0582Z" fill="white"/>
<path d="M55.9659 59.1797C55.0233 59.1797 54.1018 58.9002 53.3181 58.3765C52.5343 57.8528 51.9234 57.1085 51.5627 56.2376C51.202 55.3668 51.1076 54.4085 51.2915 53.484C51.4753 52.5595 51.9292 51.7103 52.5958 51.0438C53.2623 50.3772 54.1115 49.9233 55.036 49.7394C55.9605 49.5555 56.9187 49.6499 57.7896 50.0106C58.6605 50.3713 59.4048 50.9822 59.9285 51.7659C60.4522 52.5497 60.7317 53.4711 60.7317 54.4137C60.7303 55.6773 60.2277 56.8887 59.3342 57.7821C58.4408 58.6756 57.2294 59.1782 55.9659 59.1797V59.1797ZM55.9659 51.0582C55.3022 51.0582 54.6534 51.255 54.1016 51.6237C53.5497 51.9924 53.1196 52.5165 52.8656 53.1297C52.6116 53.7428 52.5452 54.4175 52.6746 55.0685C52.8041 55.7194 53.1237 56.3173 53.593 56.7866C54.0623 57.2559 54.6602 57.5755 55.3112 57.705C55.9621 57.8345 56.6368 57.768 57.25 57.514C57.8632 57.26 58.3872 56.8299 58.7559 56.2781C59.1247 55.7262 59.3214 55.0774 59.3214 54.4137C59.3204 53.5241 58.9666 52.6712 58.3375 52.0421C57.7085 51.413 56.8555 51.0591 55.9659 51.0581V51.0582Z" fill="white"/>
<circle cx="29" cy="34" r="8.3" fill="#FCAFAF" stroke="white" stroke-width="1.4"/>
<path d="M29 29V34L26 37" stroke="white" stroke-width="1.4" stroke-linecap="round"/>
</g>
<defs>
<clipPath id="clip0">
<rect width="84" height="84" fill="white"/>
</clipPath>
</defs>
</svg>
