<svg width="1440" height="720" viewBox="0 0 1440 720" fill="none" xmlns="http://www.w3.org/2000/svg">
<path fill-rule="evenodd" clip-rule="evenodd" d="M911.454 0C884.031 17.8684 861.956 34.4794 846.718 47.1302C753.311 124.675 711.014 216.32 721.588 318.538C732.288 421.968 825.569 500.065 911.926 500.065C975.922 500.065 989.186 526.419 1005.59 559.003C1019.45 586.542 1035.55 618.529 1086.4 642.819C1176.03 685.623 1322.75 679.121 1440 609.219V720H0V0H911.454ZM870.536 557.324C880.388 549.145 910.949 528.971 941.077 535.162C969.307 540.964 981.843 581.237 955.885 613.494C935.224 639.17 857.496 635.604 853.272 594.771C851.813 580.667 857.649 568.023 870.536 557.324ZM788.796 539.966C787.968 559.058 803.643 570.602 815.725 565.037C829.693 558.605 836.706 544.696 824.075 530.789C811.336 516.764 789.455 524.77 788.796 539.966Z" fill="#FAFAFE" fill-opacity="0.94"/>
</svg>
