<svg width="20" height="20" viewBox="0 0 20 20" fill="none" xmlns="http://www.w3.org/2000/svg">
<path d="M15.2734 18.75C14.5109 18.75 13.4399 18.4742 11.8359 17.5781C9.88556 16.4844 8.37696 15.4746 6.43712 13.5398C4.56681 11.6707 3.65665 10.4606 2.38282 8.14258C0.943759 5.52539 1.18907 4.15352 1.46329 3.56719C1.78985 2.86641 2.27188 2.44727 2.89493 2.03125C3.24882 1.79939 3.62332 1.60064 4.01368 1.4375C4.05274 1.42071 4.08907 1.40469 4.12149 1.39024C4.31485 1.30313 4.60782 1.17149 4.97892 1.31211C5.22657 1.40508 5.44767 1.59532 5.79376 1.93711C6.50353 2.63711 7.47345 4.1961 7.83126 4.96172C8.07149 5.47774 8.23048 5.81836 8.23087 6.20039C8.23087 6.64766 8.00587 6.99258 7.73282 7.36485C7.68165 7.43477 7.63087 7.50157 7.58165 7.56641C7.28438 7.95704 7.21915 8.06993 7.26212 8.27149C7.34923 8.67657 7.99884 9.88243 9.06642 10.9477C10.134 12.0129 11.3051 12.6215 11.7117 12.7082C11.9219 12.7531 12.0371 12.6852 12.4402 12.3773C12.4981 12.3332 12.5574 12.2875 12.6195 12.2418C13.0359 11.932 13.3649 11.7129 13.8016 11.7129H13.8039C14.184 11.7129 14.5094 11.8777 15.0484 12.1496C15.7516 12.5043 17.3574 13.4617 18.0617 14.1723C18.4043 14.5176 18.5953 14.7379 18.6887 14.9852C18.8293 15.3574 18.6969 15.6492 18.6106 15.8445C18.5961 15.877 18.5801 15.9125 18.5633 15.952C18.3989 16.3416 18.1989 16.7153 17.966 17.0684C17.5508 17.6895 17.1301 18.1703 16.4277 18.4973C16.0671 18.6679 15.6724 18.7543 15.2734 18.75Z" fill="white"/>
</svg>
