<svg width="190" height="32" viewBox="0 0 190 32" fill="none" xmlns="http://www.w3.org/2000/svg">
<path d="M52.0544 7.248V9.96H45.0704V14.256H50.4224V16.92H45.0704V24H41.7104V7.248H52.0544ZM62.2609 24.216C60.9809 24.216 59.8289 23.936 58.8049 23.376C57.7809 22.8 56.9729 21.992 56.3809 20.952C55.8049 19.912 55.5169 18.712 55.5169 17.352C55.5169 15.992 55.8129 14.792 56.4049 13.752C57.0129 12.712 57.8369 11.912 58.8769 11.352C59.9169 10.776 61.0769 10.488 62.3569 10.488C63.6369 10.488 64.7969 10.776 65.8369 11.352C66.8769 11.912 67.6929 12.712 68.2849 13.752C68.8929 14.792 69.1969 15.992 69.1969 17.352C69.1969 18.712 68.8849 19.912 68.2609 20.952C67.6529 21.992 66.8209 22.8 65.7649 23.376C64.7249 23.936 63.5569 24.216 62.2609 24.216ZM62.2609 21.288C62.8689 21.288 63.4369 21.144 63.9649 20.856C64.5089 20.552 64.9409 20.104 65.2609 19.512C65.5809 18.92 65.7409 18.2 65.7409 17.352C65.7409 16.088 65.4049 15.12 64.7329 14.448C64.0769 13.76 63.2689 13.416 62.3089 13.416C61.3489 13.416 60.5409 13.76 59.8849 14.448C59.2449 15.12 58.9249 16.088 58.9249 17.352C58.9249 18.616 59.2369 19.592 59.8609 20.28C60.5009 20.952 61.3009 21.288 62.2609 21.288ZM79.4856 24.216C78.2056 24.216 77.0536 23.936 76.0296 23.376C75.0056 22.8 74.1976 21.992 73.6056 20.952C73.0296 19.912 72.7416 18.712 72.7416 17.352C72.7416 15.992 73.0376 14.792 73.6296 13.752C74.2376 12.712 75.0616 11.912 76.1016 11.352C77.1416 10.776 78.3016 10.488 79.5816 10.488C80.8616 10.488 82.0216 10.776 83.0616 11.352C84.1016 11.912 84.9176 12.712 85.5096 13.752C86.1176 14.792 86.4216 15.992 86.4216 17.352C86.4216 18.712 86.1096 19.912 85.4856 20.952C84.8776 21.992 84.0456 22.8 82.9896 23.376C81.9496 23.936 80.7816 24.216 79.4856 24.216ZM79.4856 21.288C80.0936 21.288 80.6616 21.144 81.1896 20.856C81.7336 20.552 82.1656 20.104 82.4856 19.512C82.8056 18.92 82.9656 18.2 82.9656 17.352C82.9656 16.088 82.6296 15.12 81.9576 14.448C81.3016 13.76 80.4936 13.416 79.5336 13.416C78.5736 13.416 77.7656 13.76 77.1096 14.448C76.4696 15.12 76.1496 16.088 76.1496 17.352C76.1496 18.616 76.4616 19.592 77.0856 20.28C77.7256 20.952 78.5256 21.288 79.4856 21.288ZM89.9423 17.304C89.9423 15.96 90.2063 14.768 90.7343 13.728C91.2783 12.688 92.0143 11.888 92.9423 11.328C93.8703 10.768 94.9023 10.488 96.0383 10.488C96.9023 10.488 97.7263 10.68 98.5103 11.064C99.2943 11.432 99.9183 11.928 100.382 12.552V6.24H103.79V24H100.382V22.032C99.9663 22.688 99.3823 23.216 98.6303 23.616C97.8783 24.016 97.0063 24.216 96.0143 24.216C94.8943 24.216 93.8703 23.928 92.9423 23.352C92.0143 22.776 91.2783 21.968 90.7343 20.928C90.2063 19.872 89.9423 18.664 89.9423 17.304ZM100.406 17.352C100.406 16.536 100.246 15.84 99.9263 15.264C99.6063 14.672 99.1743 14.224 98.6303 13.92C98.0863 13.6 97.5023 13.44 96.8783 13.44C96.2543 13.44 95.6783 13.592 95.1503 13.896C94.6223 14.2 94.1903 14.648 93.8543 15.24C93.5343 15.816 93.3743 16.504 93.3743 17.304C93.3743 18.104 93.5343 18.808 93.8543 19.416C94.1903 20.008 94.6223 20.464 95.1503 20.784C95.6943 21.104 96.2703 21.264 96.8783 21.264C97.5023 21.264 98.0863 21.112 98.6303 20.808C99.1743 20.488 99.6063 20.04 99.9263 19.464C100.246 18.872 100.406 18.168 100.406 17.352ZM116.48 10.512C117.488 10.512 118.384 10.736 119.168 11.184C119.952 11.616 120.56 12.264 120.992 13.128C121.44 13.976 121.664 15 121.664 16.2V24H118.304V16.656C118.304 15.6 118.04 14.792 117.512 14.232C116.984 13.656 116.264 13.368 115.352 13.368C114.424 13.368 113.688 13.656 113.144 14.232C112.616 14.792 112.352 15.6 112.352 16.656V24H108.992V6.24H112.352V12.36C112.784 11.784 113.36 11.336 114.08 11.016C114.8 10.68 115.6 10.512 116.48 10.512ZM132.683 24.216C131.403 24.216 130.251 23.936 129.227 23.376C128.203 22.8 127.395 21.992 126.803 20.952C126.227 19.912 125.939 18.712 125.939 17.352C125.939 15.992 126.235 14.792 126.827 13.752C127.435 12.712 128.259 11.912 129.299 11.352C130.339 10.776 131.499 10.488 132.779 10.488C134.059 10.488 135.219 10.776 136.259 11.352C137.299 11.912 138.115 12.712 138.707 13.752C139.315 14.792 139.619 15.992 139.619 17.352C139.619 18.712 139.307 19.912 138.683 20.952C138.075 21.992 137.243 22.8 136.187 23.376C135.147 23.936 133.979 24.216 132.683 24.216ZM132.683 21.288C133.291 21.288 133.859 21.144 134.387 20.856C134.931 20.552 135.363 20.104 135.683 19.512C136.003 18.92 136.163 18.2 136.163 17.352C136.163 16.088 135.827 15.12 135.155 14.448C134.499 13.76 133.691 13.416 132.731 13.416C131.771 13.416 130.963 13.76 130.307 14.448C129.667 15.12 129.347 16.088 129.347 17.352C129.347 18.616 129.659 19.592 130.283 20.28C130.923 20.952 131.723 21.288 132.683 21.288ZM156.556 10.704V24H153.172V22.32C152.74 22.896 152.172 23.352 151.468 23.688C150.78 24.008 150.028 24.168 149.212 24.168C148.172 24.168 147.252 23.952 146.452 23.52C145.652 23.072 145.02 22.424 144.556 21.576C144.108 20.712 143.884 19.688 143.884 18.504V10.704H147.244V18.024C147.244 19.08 147.508 19.896 148.036 20.472C148.564 21.032 149.284 21.312 150.196 21.312C151.124 21.312 151.852 21.032 152.38 20.472C152.908 19.896 153.172 19.08 153.172 18.024V10.704H156.556ZM166.879 24.216C165.791 24.216 164.815 24.024 163.951 23.64C163.087 23.24 162.399 22.704 161.887 22.032C161.391 21.36 161.119 20.616 161.071 19.8H164.455C164.519 20.312 164.767 20.736 165.199 21.072C165.647 21.408 166.199 21.576 166.855 21.576C167.495 21.576 167.991 21.448 168.343 21.192C168.711 20.936 168.895 20.608 168.895 20.208C168.895 19.776 168.671 19.456 168.223 19.248C167.791 19.024 167.095 18.784 166.135 18.528C165.143 18.288 164.327 18.04 163.687 17.784C163.063 17.528 162.519 17.136 162.055 16.608C161.607 16.08 161.383 15.368 161.383 14.472C161.383 13.736 161.591 13.064 162.007 12.456C162.439 11.848 163.047 11.368 163.831 11.016C164.631 10.664 165.567 10.488 166.639 10.488C168.223 10.488 169.487 10.888 170.431 11.688C171.375 12.472 171.895 13.536 171.991 14.88H168.775C168.727 14.352 168.503 13.936 168.103 13.632C167.719 13.312 167.199 13.152 166.543 13.152C165.935 13.152 165.463 13.264 165.127 13.488C164.807 13.712 164.647 14.024 164.647 14.424C164.647 14.872 164.871 15.216 165.319 15.456C165.767 15.68 166.463 15.912 167.407 16.152C168.367 16.392 169.159 16.64 169.783 16.896C170.407 17.152 170.943 17.552 171.391 18.096C171.855 18.624 172.095 19.328 172.111 20.208C172.111 20.976 171.895 21.664 171.463 22.272C171.047 22.88 170.439 23.36 169.639 23.712C168.855 24.048 167.935 24.216 166.879 24.216ZM189.149 17.064C189.149 17.544 189.117 17.976 189.053 18.36H179.333C179.413 19.32 179.749 20.072 180.341 20.616C180.933 21.16 181.661 21.432 182.525 21.432C183.773 21.432 184.661 20.896 185.189 19.824H188.813C188.429 21.104 187.693 22.16 186.605 22.992C185.517 23.808 184.181 24.216 182.597 24.216C181.317 24.216 180.165 23.936 179.141 23.376C178.133 22.8 177.341 21.992 176.765 20.952C176.205 19.912 175.925 18.712 175.925 17.352C175.925 15.976 176.205 14.768 176.765 13.728C177.325 12.688 178.109 11.888 179.117 11.328C180.125 10.768 181.285 10.488 182.597 10.488C183.861 10.488 184.989 10.76 185.981 11.304C186.989 11.848 187.765 12.624 188.309 13.632C188.869 14.624 189.149 15.768 189.149 17.064ZM185.669 16.104C185.653 15.24 185.341 14.552 184.733 14.04C184.125 13.512 183.381 13.248 182.501 13.248C181.669 13.248 180.965 13.504 180.389 14.016C179.829 14.512 179.485 15.208 179.357 16.104H185.669Z" fill="#2B2F4E"/>
<path d="M2.28571 18.0782C2.28571 23.1662 6.3449 27.4286 12 27.4286C17.6551 27.4286 21.7143 23.1662 21.7143 18.0782C21.7143 15.7924 20.9149 13.0795 19.4347 10.3275C17.3251 6.40529 15.4564 4.57141 12.5397 4.57141H11.4603C8.51492 4.57141 6.16063 6.85854 4.53704 10.3841C2.96825 13.7907 2.28571 15.9847 2.28571 18.0782Z" fill="#C0CA67"/>
<path d="M8.33475 18.286C8.33475 24.41 13.0557 29.5714 19.6205 29.5714C26.1852 29.5714 30.9062 24.41 30.9062 18.286C30.9062 15.5645 29.9961 12.421 28.3806 9.3005C27.2478 7.11249 26.128 5.39962 24.8315 4.23311C23.4957 3.03114 21.9931 2.42856 20.1919 2.42856H19.049C15.3128 2.42856 12.5684 5.4376 10.8043 9.41731C9.13137 13.1913 8.33475 15.7645 8.33475 18.286Z" fill="white" stroke="white" stroke-width="2"/>
<path fill-rule="evenodd" clip-rule="evenodd" d="M11.6205 18.286C11.6205 22.6777 14.9516 26.2857 19.6205 26.2857C24.2893 26.2857 27.6205 22.6777 27.6205 18.286C27.6205 16.245 26.9194 13.6249 25.4627 10.8111C24.3823 8.72431 23.4816 7.4384 22.6339 6.67567C21.8762 5.99399 21.1485 5.71427 20.1919 5.71427H19.049C17.3421 5.71427 15.4243 7.1028 13.8081 10.7488C12.1742 14.4349 11.6205 16.4832 11.6205 18.286ZM19.6205 28.5714C13.6327 28.5714 9.33475 23.8828 9.33475 18.286C9.33475 15.9832 10.0574 13.5698 11.7185 9.82256C13.4376 5.9444 15.9304 3.42856 19.049 3.42856H20.1919C23.2802 3.42856 25.2588 5.44583 27.4925 9.76026C29.0597 12.7874 29.9062 15.7716 29.9062 18.286C29.9062 23.8828 25.6082 28.5714 19.6205 28.5714Z" fill="#C0CA67"/>
<path d="M23.049 18.4285C23.049 20.3221 21.514 21.8571 19.6205 21.8571C17.7269 21.8571 16.1919 20.3221 16.1919 18.4285C16.1919 16.1981 18.0381 13.7143 19.6205 13.7143C21.2028 13.7143 23.049 16.1981 23.049 18.4285Z" fill="#C0CA67"/>
</svg>
