<svg width="30" height="30" viewBox="0 0 30 30" fill="none" xmlns="http://www.w3.org/2000/svg">
<path d="M26.48 28.0667C26.0133 28.0667 25.64 27.88 25.36 27.6L18.92 21.16C17.1466 22.4667 14.9066 23.2134 12.6666 23.2134C6.69329 23.2134 1.93329 18.36 1.93329 12.5733C1.93329 6.78668 6.69329 1.93335 12.5733 1.93335C18.4533 1.93335 23.2133 6.69335 23.2133 12.5733C23.2133 14.8134 22.4666 17.0534 21.16 18.8267L27.6 25.2667C27.88 25.5467 28.0666 26.0134 28.0666 26.3867C28.0666 26.76 27.88 27.2267 27.6 27.5067C27.32 27.7867 26.8533 28.0667 26.48 28.0667ZM12.5733 5.20002C8.46662 5.20002 5.19996 8.46668 5.19996 12.5733C5.19996 16.68 8.46662 19.9467 12.5733 19.9467C16.5866 19.9467 19.9466 16.68 19.9466 12.5733C19.9466 8.46668 16.5866 5.20002 12.5733 5.20002Z" fill="white"/>
</svg>
